HIERARCHY
ROOT Hips
{
  OFFSET -329.682 96.711 -36.4497
  CHANNELS 6 Xposition Yposition Zposition Zrotation Xrotation Yrotation
  JOINT RightUpLeg
  {
    OFFSET -8.9458 -8.66707 0.101652
    CHANNELS 3 Zrotation Xrotation Yrotation
    JOINT RightLeg
    {
      OFFSET 0 -44.4227 1.3727
      CHANNELS 3 Zrotation Xrotation Yrotation
      JOINT RightFoot
      {
        OFFSET 0.253549 -42.0924 -1.46059
        CHANNELS 3 Zrotation Xrotation Yrotation
        JOINT RightToes
        {
          OFFSET 0.04 -4.41509 8.4991
          CHANNELS 3 Zrotation Xrotation Yrotation
          End Site
          {
            OFFSET -0.08 -0.137448 9.77979
          }
        }
      }
    }
  }
  JOINT Spine
  {
    OFFSET 0 11.8905 0
    CHANNELS 3 Zrotation Xrotation Yrotation
    JOINT Spine1
    {
      OFFSET 0 25.6574 0.127663
      CHANNELS 3 Zrotation Xrotation Yrotation
      JOINT HEad
      {
        OFFSET 0 8.73416 0.011341
        CHANNELS 3 Zrotation Xrotation Yrotation
        End Site
        {
          OFFSET -0.29 12.7742 2.51395
        }
      }
      JOINT LeftShoulder1
      {
        OFFSET 8.99 -0.362252 -0.22
        CHANNELS 3 Zrotation Xrotation Yrotation
        JOINT LeftArm
        {
          OFFSET 10.2827 -0.00338 0.322123
          CHANNELS 3 Zrotation Xrotation Yrotation
          JOINT LeftForeArm
          {
            OFFSET 32.7669 0.099144 -1.42434
            CHANNELS 3 Zrotation Xrotation Yrotation
            JOINT LeftHand
            {
              OFFSET 27.5643 0.085362 1.02216
              CHANNELS 3 Zrotation Xrotation Yrotation
              End Site
              {
                OFFSET 16.7443 -0.6 1.50291
              }
            }
          }
        }
      }
      JOINT RightShoulder
      {
        OFFSET -8.99 -0.362252 -0.22
        CHANNELS 3 Zrotation Xrotation Yrotation
        JOINT RightArm
        {
          OFFSET -10.2827 -0.00338 0.322123
          CHANNELS 3 Zrotation Xrotation Yrotation
          JOINT RightForeArm
          {
            OFFSET -32.8971 0.099144 -1.42434
            CHANNELS 3 Zrotation Xrotation Yrotation
            JOINT RightHand
            {
              OFFSET -27.4921 0.085362 1.02216
              CHANNELS 3 Zrotation Xrotation Yrotation
              End Site
              {
                OFFSET -16.6312 -0.6 1.50291
              }
            }
          }
        }
      }
    }
  }
  JOINT LeftUpLeg
  {
    OFFSET 8.9458 -8.66707 0.101652
    CHANNELS 3 Zrotation Xrotation Yrotation
    JOINT LeftLeg
    {
      OFFSET 0 -44.4227 1.3727
      CHANNELS 3 Zrotation Xrotation Yrotation
      JOINT LeftFoot
      {
        OFFSET -0.253549 -42.0924 -1.46059
        CHANNELS 3 Zrotation Xrotation Yrotation
        JOINT LeftToes
        {
          OFFSET -0.04 -4.41509 8.4991
          CHANNELS 3 Zrotation Xrotation Yrotation
          End Site
          {
            OFFSET 0.08 -0.047448 9.77979
          }
        }
      }
    }
  }
}
MOTION
Frames:	12
Frame Time:	0.0166667
-332.389 94.5851 -36.1541 10.1531 -12.8699 42.3211 -27.2914 -4.83648 18.5177 44.5298 33.597 -53.6875 -24.6155 1.0782 -1.35673 0.0462048 0.000533403 0.662642 -0.0708935 24.4525 -1.44622 -0.0184296 0.02719 0.0166504 0.787794 4.22525 14.0438 -7.95139e-016 -1.59028e-015 9.54166e-015 -121.105 -61.2018 -98.8036 -53.875 54.5749 -55.2778 20.9024 16.4539 -12.1469 14.8188 9.35026 -0.799779 109.567 -6.16122 75.5832 26.7056 56.3084 90.5403 24.7636 20.8967 1.21262 23.9089 -8.51736 -1.33533 -38.5047 13.8477 71.2939 26.2219 -1.69677 1.07818 -2.05367e-009 1.55988e-007 -4.8394e-009 
-331.828 95.1407 -36.259 10.17 -12.5854 42.0528 -27.5433 -3.12808 18.5439 41.8771 31.813 -50.97 -22.1803 0.556528 -1.2852 0.0462048 0.000533403 0.662642 -1.72189 25.3416 -0.354649 -0.0169197 0.03224 0.0091404 0.430804 3.69755 13.2339 -7.95139e-016 7.95139e-016 3.18055e-015 -119.003 -63.5154 -97.0251 -52.1516 51.9746 -57.8599 20.1209 16.7898 -5.49608 9.33039 10.3181 0.672784 113.365 -5.15155 78.0116 23.1463 56.5585 92.5296 31.1438 22.2117 2.56111 23.0066 -9.40911 -2.92021 -37.8496 15.2853 72.3049 24.399 -1.5208 1.02009 -2.05367e-009 1.55988e-007 -4.83939e-009 
-331.216 95.6327 -36.3483 10.1896 -12.2979 41.7048 -27.9336 -1.11009 18.4655 39.0896 29.6688 -47.913 -19.6889 -0.0434543 -1.18232 0.0462048 0.000533403 0.662642 -3.57925 26.5275 0.871437 -0.01141 0.03319 -0.00248973 -0.193073 2.96601 12.2006 7.95139e-016 1.59028e-015 -0 -114.989 -66.8872 -93.6296 -50.473 47.8907 -60.6741 17.7711 17.1342 1.99691 2.07672 11.6278 1.51736 117.73 -3.00364 81.0172 18.4877 56.4344 95.0517 37.747 24.326 2.83191 22.1286 -10.5183 -4.76968 -37.595 17.2367 73.015 22.6128 -1.24965 0.936481 -2.05367e-009 1.55988e-007 -4.8394e-009 
-330.515 96.1451 -36.3905 9.61473 -11.7548 39.1047 -28.5352 -0.0434087 19.1456 36.4221 27.1197 -43.8456 -17.4355 -0.790187 -1.07075 0.0462048 0.000533403 0.662642 -6.46359 27.9843 3.91672 -0.0152609 0.10465 -0.0440997 -0.654737 1.0383 11.7419 -1.59028e-015 1.59028e-015 6.36111e-015 -103.265 -72.3253 -84.1847 -49.7099 39.4844 -62.1225 6.64628 15.0709 10.832 -6.81292 15.0976 -3.58888 120.487 4.39878 84.4145 12.1939 54.4149 98.3113 43.8677 26.6516 -6.32982 22.2008 -11.9758 -5.44415 -38.3638 20.547 72.3151 20.412 -0.961953 0.870199 -2.05367e-009 1.55988e-007 -4.8394e-009 
-329.682 96.711 -36.4497 8.60011 -11.1468 34.6837 -29.3137 0.00808464 20.2774 34.1383 24.2394 -39.0403 -15.4692 -1.57668 -0.955769 0.0462048 0.000533403 0.662642 -9.92349 29.1958 7.5208 0.00314839 0.08556 -0.0710201 -1.24702 -1.3833 12.4851 1.59028e-015 -1.59028e-015 -0 -77.501 -77.3796 -63.3451 -53.8546 22.6083 -55.659 -9.601 14.319 10.0488 -6.15677 12.3747 -3.51248 113.321 0.0394778 86.4329 7.39038 51.6374 100.311 24.7819 22.2068 13.5731 23.1083 -13.3799 -5.31995 -38.944 23.8682 71.4433 17.2677 -1.15847 0.964899 -2.05367e-009 1.55988e-007 -4.83939e-009 
-328.886 97.3049 -36.5423 7.18204 -10.5792 28.7754 -29.984 -1.05434 21.5833 32.4955 21.1793 -33.7746 -13.87 -2.3213 -0.849389 0.0462048 0.000533403 0.662642 -13.4074 29.8858 11.1053 0.0223081 0.0628399 -0.0826406 -2.08498 -4.10157 14.4534 -4.77083e-015 -1.59028e-015 6.36111e-015 -40.7648 -78.817 -34.0432 -58.4802 8.01993 -46.9266 -17.6275 21.7999 -0.0905316 -5.27409 9.39307 -2.83483 108.181 -2.24516 87.0996 0.517289 49.3441 100.755 33.5912 26.9638 -5.56399 24.6032 -14.3019 -4.73617 -39.1802 26.5918 70.2777 13.6468 -1.37588 0.923227 -2.05367e-009 1.55988e-007 -4.8394e-009 
-328.192 97.9161 -36.7227 6.03879 -10.1425 23.6999 -30.4928 -2.1824 22.4668 31.5676 18.0853 -29.346 -12.4085 -2.93314 -0.739798 0.0462048 0.000533403 0.662642 -16.0049 30.7427 12.2914 0.031108 0.0413999 -0.0841808 -3.14604 -6.88496 17.5412 7.95139e-016 -3.18055e-015 -3.18055e-015 -16.0337 -77.6305 -17.2424 -61.0043 -2.46286 -39.6341 -23.2424 27.4899 -3.58447 -4.60097 6.52155 -1.39035 107.357 -5.99846 85.5877 -4.6492 48.3793 101.859 15.6388 21.0869 14.8033 25.3739 -15.0134 -5.92836 -38.8974 28.3487 68.8751 9.87569 -1.59887 0.811813 -2.05367e-009 1.55988e-007 -4.8394e-009 
-327.527 98.4507 -37.0631 5.05554 -9.87512 19.3758 -30.9016 -3.26624 22.9931 31.1735 15.2013 -25.6289 -10.8242 -3.41966 -0.616275 0.0462048 0.000533403 0.662642 -17.5138 31.7306 11.3504 0.0320606 0.0324099 -0.0713508 -4.34828 -9.60636 21.5202 -2.38542e-015 0 -6.36111e-015 -1.42584 -76.0859 -9.69249 -62.2581 -9.27235 -34.9544 -23.5134 35.8257 -8.65172 4.15633 6.76324 -6.48503 101.696 -2.4148 84.7277 -7.76702 51.2441 105.914 22.5474 22.6651 14.3863 25.5536 -15.4016 -8.74108 -39.5215 28.2669 69.5004 7.1909 -1.57982 0.653302 -2.05368e-009 1.55988e-007 -4.83939e-009 
-326.809 98.891 -37.595 4.14181 -9.78003 15.7318 -31.2341 -4.18992 23.2083 31.0145 12.6671 -22.489 -8.90112 -3.76182 -0.47618 0.0462048 0.000533403 0.662642 -17.8067 32.791 8.51089 0.0318985 0.0294299 -0.0644108 -5.64109 -12.1906 26.2452 3.97569e-015 -3.18055e-015 -3.18055e-015 8.04707 -74.4125 -6.10734 -61.9476 -14.8318 -32.5662 -28.5942 37.8663 -7.05485 2.84417 5.04233 -1.57442 107.238 -7.66667 81.9957 -10.6719 55.881 112.722 14.5044 17.9228 20.9427 25.2796 -15.4904 -11.8235 -40.0509 27.4192 70.78 5.28142 -1.54932 0.544609 -2.05367e-009 1.55988e-007 -4.8394e-009 
-325.935 99.2276 -38.3268 3.24168 -9.84846 12.6977 -31.5007 -4.8918 23.1646 30.8287 10.5702 -19.8449 -6.46327 -3.95886 -0.316399 0.0462048 0.000533403 0.662642 -16.8869 33.8212 4.09292 0.0339587 0.0308399 -0.0558908 -6.96571 -14.5894 31.4946 0 3.18055e-015 -0 14.9073 -72.7011 -3.43398 -61.2568 -18.9988 -31.9074 -31.1341 43.7668 -8.47759 1.77214 3.74702 3.5979 110.211 -10.3413 80.2061 -10.3604 54.8614 112.029 22.456 21.4814 21.6087 24.7495 -15.3352 -15.0072 -40.2661 26.0886 72.5324 3.95388 -1.57446 0.445314 -2.05367e-009 1.55988e-007 -4.8394e-009 
-324.831 99.4514 -39.1987 2.33051 -10.047 10.2047 -31.713 -5.37696 22.9071 30.4272 8.94988 -17.6711 -3.46064 -4.03702 -0.135871 0.0462048 0.000533403 0.662642 -15.5801 34.1771 -0.114502 -0.0152491 -0.00350997 0.0376804 -7.95965 -16.0773 35.9736 7.55382e-015 -3.18055e-015 7.95139e-016 13.8356 -71.1539 -8.06841 -59.6953 -22.2125 -32.0193 -35.7646 41.9325 -9.25152 10.7509 5.50531 0.473168 102.02 -4.85383 78.5409 -10.1306 54.5472 111.742 11.4714 19.6793 10.864 24.1034 -14.9947 -18.1436 -40.168 24.5068 74.6633 3.0794 -1.66758 0.341919 -2.05367e-009 1.55988e-007 -4.83939e-009 
-323.495 99.5689 -40.134 1.41891 -10.3337 8.18086 -31.8523 -5.64792 22.4876 29.6404 7.77809 -15.9453 0.0283168 -4.00181 0.0515006 0.0462048 0.000533403 0.662642 -14.0714 33.9561 -3.92896 -0.0121691 0.00178003 0.0380503 -8.82507 -16.811 39.8344 4.96962e-015 0 1.19271e-015 7.59763 -70.2249 -17.0814 -57.8878 -24.8037 -32.6018 -26.7475 41.2864 -0.514466 9.66143 6.3132 4.43857 103.146 -6.27835 77.3684 -9.85936 54.4244 111.882 22.157 22.2449 20.4662 23.4533 -14.4726 -21.1193 -39.5154 22.4547 78.9721 2.7677 -1.86701 0.208718 -2.05367e-009 1.55988e-007 -4.8394e-009 
